<?xml version="1.0" encoding="utf-8"?>
<!-- Generator: Adobe Illustrator 15.0.0, SVG Export Plug-In . SVG Version: 6.00 Build 0)  -->
<!DOCTYPE svg PUBLIC "-//W3C//DTD SVG 1.1//EN" "http://www.w3.org/Graphics/SVG/1.1/DTD/svg11.dtd">
<svg version="1.1" id="Layer_1" xmlns="http://www.w3.org/2000/svg" xmlns:xlink="http://www.w3.org/1999/xlink" x="0px" y="0px"
	 width="792px" height="612px" viewBox="0 0 792 612" enable-background="new 0 0 792 612" xml:space="preserve">
<circle fill="#C6DAE7" cx="396" cy="306" r="306"/>
<path fill="#A6BBC8" d="M106.384,404.787C147.345,525.26,261.553,612,396,612s248.655-86.74,289.615-207.213H106.384z"/>
<g>
	<path fill="#324A5E" d="M227.338,546.463c0,0,3.374,11.565-1.445,14.938c0,0-4.819,0.964-4.337,7.71c0,0,0,7.229-9.638,6.747
		c0,0-25.54,2.892-28.913-2.892c0,0-2.892-3.373-0.964-8.674l29.395-11.084L227.338,546.463z"/>
	<path fill="#324A5E" d="M223.483,529.115c0,0,11.083,9.155,2.892,21.685c0,0-5.783,7.71-5.783,12.048
		c0,0,0.963,12.528-12.529,9.638c0,0-13.493-9.638-22.167-1.446c0,0-6.747-0.481-3.373-9.638c0,0,7.71-9.638,12.047-18.312
		c0,0,2.891-1.928,1.445-8.674L223.483,529.115z"/>
	<path fill="#324A5E" d="M253.843,546.463c0,0-3.374,11.565,1.445,14.938c0,0,4.819,0.964,4.337,7.71c0,0,0,7.229,9.638,6.747
		c0,0,25.54,2.892,28.913-2.892c0,0,2.892-3.373,0.964-8.674l-29.395-11.084L253.843,546.463z"/>
	<path fill="#324A5E" d="M257.216,529.115c0,0-11.083,9.155-2.892,21.685c0,0,5.783,7.71,5.783,12.048
		c0,0-0.963,12.528,12.529,9.638c0,0,13.493-9.638,22.167-1.446c0,0,6.747-0.481,3.373-9.638c0,0-7.71-9.638-12.047-18.312
		c0,0-2.891-1.928-1.445-8.674L257.216,529.115z"/>
</g>
<polygon fill="#E6E9EE" points="213.364,116.617 238.904,215.887 264.444,116.617 "/>
<polygon fill="#009CB6" points="246.132,127.701 249.987,116.617 230.712,116.617 234.567,127.701 "/>
<polygon fill="#009CB6" points="246.132,127.701 240.35,127.701 234.567,127.701 221.556,202.875 240.35,215.887 259.144,202.875 
	"/>
<g>
	<path fill="#2B3B4E" d="M192.643,255.883c-4.819,26.022-9.638,72.284-0.964,125.773c0,0,7.71,123.846,0.482,151.313
		c0,0,14.457,26.022,40.479,0c0,0,0.964-203.839,7.71-212.031v-65.055H192.643z"/>
	<path fill="#2B3B4E" d="M240.35,255.883v65.055c6.747,8.674,7.71,212.031,7.71,212.031c26.022,26.022,40.479,0,40.479,0
		c-7.229-27.468,0.482-151.313,0.482-151.313c8.674-53.971,3.373-100.232-0.964-125.773H240.35z"/>
</g>
<polygon fill="#CED5E0" points="260.589,103.125 220.11,103.125 213.846,116.617 263.962,116.617 "/>
<circle fill="#2B3B4E" cx="246.614" cy="225.042" r="4.337"/>
<polygon fill="#FFFFFF" points="267.817,188.419 275.527,175.408 287.093,184.082 "/>
<rect x="264.955" y="184.001" transform="matrix(-0.9789 0.2042 -0.2042 -0.9789 587.811 313.606)" fill="#2B3B4E" width="25.538" height="6.264"/>
<g>
	<path fill="#FFD05B" d="M312.633,310.819c0.482,4.818,0.482,8.191,0.482,8.191c1.446,1.446,4.819,5.783,4.819,5.783
		c6.265,5.301,2.892,9.155,2.892,9.155l0.482,3.855c1.446,1.928,0.482,4.819,0.482,4.819c-3.374,6.265-5.783,0.963-5.783,0.963
		c-3.855,4.338-5.783-0.963-5.783-0.963c-4.337,1.927-5.783-2.41-5.783-2.41s-7.71,0.964-5.783-16.384
		c0.482-3.855,0.482-8.674,0-13.493h13.975V310.819z"/>
	<path fill="#FFD05B" d="M305.887,328.167c0-0.964,0.482-3.373,0.482-3.373c-0.964,3.373,2.891,5.782,2.891,5.782
		c-0.482,0-0.482-2.409-0.482-2.409c0.482,2.892,5.783,5.301,5.783,5.301c0.964-1.928,2.41-3.373,2.41-3.373
		c-1.446,1.445-1.446,3.373-1.446,3.373c0.964,0,1.928,0.964,1.928,0.964c-1.446-0.964-1.928,0-1.928,0
		c2.409,0.481,1.446,2.892,1.446,2.892c0-2.41-1.446-1.928-1.446-1.928c1.446,0.964,0.964,2.409,0.964,2.409
		c0-1.928-2.41-1.928-2.41-1.928c0.964-1.445,0.482-1.445,0.482-1.445c-1.928-2.892-2.891,0.481-3.373,1.445
		c-0.482,0-0.482,0-0.964,0.482c1.446-2.892,0-3.374,0-3.374c-1.928-1.927-2.41,0.964-2.41,0.964c0,4.819-3.373,6.747-3.373,6.747
		h-0.964c1.928-0.964,2.892-3.373,2.892-3.373c1.927-4.819-0.482-5.301-0.482-5.301c-3.855-0.482-2.892,2.891-2.892,2.891
		c-1.445,0.482-3.373,0.482-3.373,0.482c0.964-0.482,1.446-0.964,1.446-0.964c1.445-1.446-0.964-3.855-0.964-3.855
		c0.964,0.964,5.301,0.964,5.301,0.964c1.927,0,0.482-2.409,0.482-2.409l-0.964,0.481c0-0.481-0.964-3.373-0.964-3.373
		C304.441,325.758,305.405,327.686,305.887,328.167z"/>
	<path fill="#FFD05B" d="M320.825,334.913c0,0-0.964,0.482-1.928,3.373c0,0-0.481,0.482-0.481,1.446
		c-0.482,0.964-1.446,1.445-2.41,0.964c-1.446-0.482-2.891-0.964-4.337-0.482c0,0-1.446,0-2.41,0s-1.446-0.481-0.964-1.445
		s1.446-2.409,3.374-2.892c0,0,2.409-0.481,3.373,0c0,0-3.855-1.445-5.783,0.964c0,0-2.409,2.409-0.482,3.373
		c0,0,5.783,0,6.265,0.482c0,0,2.41,0.964,3.374-0.482c0,0,0.481-2.409,2.891-1.928c0,0-0.964-0.481-1.928-0.481
		C319.379,337.805,319.861,336.359,320.825,334.913z"/>
	<path fill="#FFD05B" d="M316.006,340.696c-0.482,0.964,0.964,4.337,0.964,4.337c-0.482-0.482-0.964-0.964-0.964-0.964
		c-0.482,0.481-0.482,0.481-0.964,0.964c0.482-1.446,0-3.855,0-3.855L316.006,340.696L316.006,340.696z"/>
	<path fill="#FFD05B" d="M310.224,343.105C310.224,343.105,310.224,342.624,310.224,343.105
		C309.742,342.624,309.742,342.624,310.224,343.105c0-1.445,0-3.373,0-3.373h0.964C311.188,341.66,310.224,343.105,310.224,343.105z
		"/>
</g>
<rect x="296.249" y="301.663" fill="#FFFFFF" width="18.793" height="13.011"/>
<g>
	<path fill="#FFD05B" d="M168.548,310.819c-0.482,4.818-0.482,8.191-0.482,8.191c-1.445,1.446-4.819,5.783-4.819,5.783
		c-6.265,5.301-2.891,9.155-2.891,9.155l-0.482,3.855c-1.446,1.928-0.482,4.819-0.482,4.819c3.373,6.265,5.783,0.963,5.783,0.963
		c3.855,4.338,5.783-0.963,5.783-0.963c4.337,1.927,5.783-2.41,5.783-2.41s7.71,0.964,5.783-16.384
		c-0.482-3.855-0.482-8.674,0-13.493h-13.975V310.819L168.548,310.819z"/>
	<path fill="#FFD05B" d="M175.294,328.167c0-0.964-0.482-3.373-0.482-3.373c0.964,3.373-2.891,5.782-2.891,5.782
		c0.482,0,0.482-2.409,0.482-2.409c-0.482,2.892-5.783,5.301-5.783,5.301c-0.964-1.928-2.41-3.373-2.41-3.373
		c1.446,1.445,1.446,3.373,1.446,3.373c-0.964,0-1.928,0.964-1.928,0.964c1.446-0.964,1.928,0,1.928,0
		c-2.41,0.481-1.446,2.892-1.446,2.892c0-2.41,1.446-1.928,1.446-1.928c-1.446,0.964-0.964,2.409-0.964,2.409
		c0-1.928,2.41-1.928,2.41-1.928c-0.964-1.445-0.482-1.445-0.482-1.445c1.927-2.892,2.891,0.481,3.373,1.445
		c0.482,0,0.482,0,0.964,0.482c-1.446-2.892,0-3.374,0-3.374c1.928-1.927,2.41,0.964,2.41,0.964c0,4.819,3.373,6.747,3.373,6.747
		h0.964c-1.928-0.964-2.892-3.373-2.892-3.373c-1.927-4.819,0.482-5.301,0.482-5.301c3.855-0.482,2.892,2.891,2.892,2.891
		c1.445,0.482,3.373,0.482,3.373,0.482c-0.964-0.482-1.446-0.964-1.446-0.964c-1.445-1.446,0.964-3.855,0.964-3.855
		c-0.964,0.964-5.301,0.964-5.301,0.964c-1.928,0-0.482-2.409-0.482-2.409l0.964,0.481c0-0.481,0.964-3.373,0.964-3.373
		C176.74,325.758,175.776,327.686,175.294,328.167z"/>
	<path fill="#FFD05B" d="M160.356,334.913c0,0,0.964,0.482,1.928,3.373c0,0,0.481,0.482,0.481,1.446
		c0.482,0.964,1.446,1.445,2.41,0.964c1.446-0.482,2.891-0.964,4.337-0.482c0,0,1.446,0,2.41,0s1.445-0.481,0.964-1.445
		c-0.482-0.964-1.446-2.409-3.374-2.892c0,0-2.409-0.481-3.373,0c0,0,3.855-1.445,5.783,0.964c0,0,2.409,2.409,0.482,3.373
		c0,0-5.783,0-6.265,0.482c0,0-2.41,0.964-3.374-0.482c0,0-0.481-2.409-2.891-1.928c0,0,0.964-0.481,1.928-0.481
		C161.802,337.805,161.32,336.359,160.356,334.913z"/>
	<path fill="#FFD05B" d="M165.175,340.696c0.482,0.964-0.964,4.337-0.964,4.337c0.482-0.482,0.964-0.964,0.964-0.964
		c0.482,0.481,0.482,0.481,0.964,0.964c-0.482-1.446,0-3.855,0-3.855L165.175,340.696L165.175,340.696z"/>
	<path fill="#FFD05B" d="M170.958,343.105C170.958,343.105,170.958,342.624,170.958,343.105c0.482-0.481,0.482-0.481,0.482-0.481
		c-0.482-0.964-0.482-2.892-0.482-2.892h-0.964C169.994,341.66,170.958,343.105,170.958,343.105z"/>
</g>
<rect x="166.139" y="301.663" fill="#FFFFFF" width="18.793" height="13.011"/>
<path fill="#324A5E" d="M241.795,220.224c-21.203-21.685-41.924-84.331-41.924-84.331l6.264-5.783l-8.192-3.855l12.047-12.529
	l-39.033,14.457c0,0-13.011,33.25-9.156,181.673h22.167c0,2.891,0.481,5.782,0.963,8.191c0,0,31.323,22.649,43.37,1.446
	C228.302,319.493,244.687,269.376,241.795,220.224z M187.342,259.257c-0.482-13.493-0.964-25.54-2.41-30.359
	c0,0-0.963-13.493,1.928-23.612C189.27,223.597,189.751,242.391,187.342,259.257z"/>
<ellipse fill="#F9B54C" cx="240.35" cy="98.305" rx="17.348" ry="18.794"/>
<g>
	<polygon fill="#2B3B4E" points="556.951,483.817 498.16,392.258 498.16,423.1 537.193,483.817 	"/>
	<polygon fill="#2B3B4E" points="459.609,483.817 498.16,423.1 498.16,392.258 439.37,483.817 	"/>
</g>
<rect x="489.969" y="358.044" fill="#324A5E" width="16.866" height="146.977"/>
<path fill="#FFFFFF" d="M632.126,372.501H364.677c-7.71,0-13.975-6.265-13.975-13.975V165.288c0-7.71,6.265-13.975,13.975-13.975
	h267.449c7.71,0,13.975,6.265,13.975,13.975v193.72C645.619,366.236,639.354,372.501,632.126,372.501z"/>
<g>
	<rect x="386.362" y="276.123" fill="#EB3300" width="27.468" height="58.309"/>
	<rect x="438.406" y="261.184" fill="#EB3300" width="23.131" height="73.248"/>
	<rect x="488.041" y="212.031" fill="#EB3300" width="23.131" height="122.4"/>
	<rect x="537.676" y="284.797" fill="#EB3300" width="23.131" height="49.152"/>
	<rect x="587.311" y="235.644" fill="#EB3300" width="23.131" height="98.788"/>
</g>
<path fill="#324A5E" d="M309.742,128.183L309.742,128.183l-45.297-16.384l-11.565,70.838l-13.975,38.069
	c-2.891,49.153,13.493,99.269,13.493,99.269c12.047,21.203,43.852-1.445,43.852-1.445c0.481-2.892,0.963-5.301,0.963-8.192h21.685
	C323.235,161.433,309.742,128.183,309.742,128.183z M295.285,228.897c-0.964,4.819-1.928,16.866-2.41,30.359
	c-2.409-16.866-1.927-35.66,0-53.972C296.249,215.887,295.285,228.897,295.285,228.897z"/>
<g>
	<path fill="#2B3B4E" d="M282.274,126.255l-22.167-23.612c0.964,16.384-13.975,83.367-19.757,107.943v7.71
		c5.301-5.301,27.95-33.25,39.515-82.885l-6.265-5.783L282.274,126.255z"/>
	<path fill="#2B3B4E" d="M220.592,103.125l-22.167,23.612l8.192,3.855l-6.265,5.783c11.565,49.634,34.214,77.584,39.515,82.885
		v-7.71C234.567,186.491,219.628,119.509,220.592,103.125z"/>
</g>
<g>
	<path fill="#FFFFFF" d="M257.216,94.45c0,0,3.373,16.384-16.866,22.167c0,0,11.565,2.41,16.384,16.384
		C256.734,133.001,269.745,111.798,257.216,94.45z"/>
	<path fill="#FFFFFF" d="M223.483,94.45c0,0-3.373,16.384,16.866,22.167c0,0-11.565,2.41-16.384,16.384
		C223.965,133.001,210.954,111.798,223.483,94.45z"/>
</g>
<path fill="#FFD05B" d="M264.444,80.476c-2.41,7.229-3.374,11.083-3.374,12.047l0,0c-5.301,7.71-12.529,12.529-20.239,12.529
	c-7.229,0-13.975-4.337-19.276-11.083c-11.565-13.975-3.373-39.997-3.373-39.997c5.783,6.747,24.095,6.747,24.095,6.747
	c-7.71-0.964-9.156-7.229-9.156-7.71c1.446,3.855,19.276,6.265,19.276,6.265C270.708,62.646,264.444,80.476,264.444,80.476z"/>
<path fill="#324A5E" d="M230.23,26.986c0,0,25.058-10.12,38.069,13.011c13.493,24.576-3.374,51.08-7.229,53.008
	c0,0,0.964-4.337,3.374-12.529c0,0,6.264-18.312-12.529-20.721c0,0-17.83-2.41-19.276-6.265c0,0,1.446,6.747,9.156,7.71
	c0,0-18.312-0.482-24.095-6.747c0,0-7.71,26.022,3.374,39.997c0,0-19.758-15.902-17.348-40.479
	C204.208,53.972,203.244,20.239,230.23,26.986z"/>
</svg>
