<?xml version="1.0" encoding="utf-8"?>
<!-- Generator: Adobe Illustrator 15.0.0, SVG Export Plug-In . SVG Version: 6.00 Build 0)  -->
<!DOCTYPE svg PUBLIC "-//W3C//DTD SVG 1.1//EN" "http://www.w3.org/Graphics/SVG/1.1/DTD/svg11.dtd">
<svg version="1.1" id="Capa_1" xmlns="http://www.w3.org/2000/svg" xmlns:xlink="http://www.w3.org/1999/xlink" x="0px" y="0px"
	 width="720px" height="720px" viewBox="72 72 720 720" enable-background="new 72 72 720 720" xml:space="preserve">
<g>
	<g>
		<g>
			<path fill="#C6DAE7" d="M487.248,365.824l19.921,10.053c7.24-3.045,8.023-4.104,10.93-10.93
				c4.796-8.992,7.839-33.757-3.413-45.01c-0.875-1.431-3.229-0.738-3.229,1.062c0.37,5.211-5.209,24.948-18.493,28.177
				c-2.165,1.061-4.288,2.167-6.27,3.965C480.79,358.49,485.45,365.271,487.248,365.824z"/>
			<path fill="#A6BBC8" d="M432,417.474c-26.563-40.168,28.684-98.458,0-98.458c-62.396,0-112.984,50.59-112.984,112.984
				S369.604,544.984,432,544.984c62.395,0,112.984-50.59,112.984-112.984C544.984,398.289,476.642,485.448,432,417.474z
				 M336.4,421.763c0-10.054,8.255-18.309,18.308-18.309c10.055,0,18.309,8.255,18.309,18.309c0,10.053-8.254,18.309-18.309,18.309
				C344.655,440.071,336.4,432,336.4,421.763z M370.665,497.303c-10.053,0-18.309-8.257-18.309-18.31s8.256-18.308,18.309-18.308
				c10.238,0,18.308,8.069,18.308,18.308C388.973,489.229,380.903,497.303,370.665,497.303z M384.823,388.788
				c-10.055,0-18.309-8.253-18.309-18.307c0-10.053,8.254-18.309,18.309-18.309c10.053,0,18.308,8.256,18.308,18.309
				C403.131,380.719,395.061,388.788,384.823,388.788z M423.56,528.66c-10.054,0-18.307-8.255-18.307-18.31
				c0-10.052,8.253-18.308,18.307-18.308c10.055,0,18.31,8.256,18.31,18.308C441.869,520.405,433.614,528.66,423.56,528.66z
				 M482.219,510.215c-10.053,0-18.308-8.255-18.308-18.31c0-10.052,8.255-18.308,18.308-18.308c10.057,0,18.31,8.256,18.31,18.308
				C500.528,501.96,492.275,510.215,482.219,510.215z"/>
			<path fill="#C6DAE7" d="M477.008,435.044l26.38-50.914l-19.923-9.866c-0.186,0-0.186-0.186-0.367-0.186l-23.337,57.369
				C466.216,435.044,474.519,435.136,477.008,435.044z"/>
		</g>
	</g>
</g>
</svg>
