<?xml version="1.0" encoding="utf-8"?>
<!-- Generator: Adobe Illustrator 15.0.0, SVG Export Plug-In . SVG Version: 6.00 Build 0)  -->
<!DOCTYPE svg PUBLIC "-//W3C//DTD SVG 1.1//EN" "http://www.w3.org/Graphics/SVG/1.1/DTD/svg11.dtd">
<svg version="1.1" id="Layer_1" xmlns="http://www.w3.org/2000/svg" xmlns:xlink="http://www.w3.org/1999/xlink" x="0px" y="0px"
	 width="720px" height="720px" viewBox="-104 -104 720 720" enable-background="new -104 -104 720 720" xml:space="preserve">
<g>
	<path fill="#C6DAE7" d="M158.367,259.84l-4.75,26.518c-0.258,1.461,0.211,2.957,1.276,4c1.063,1.041,2.567,1.484,4.03,1.197
		l26.417-5.301c0.892-0.178,1.696-0.617,2.332-1.26l10.691-10.91l9.016-65.385l-47.789,48.793
		C158.947,258.133,158.524,258.955,158.367,259.84z"/>
	<path fill="#A6BBC8" d="M289.14,180.852H227.4l-19.206,139.287c-0.282,2.043,0.351,4.107,1.737,5.643l43.126,47.984
		c1.332,1.471,3.225,2.316,5.214,2.316c1.986,0,3.881-0.846,5.213-2.316l43.132-47.984c1.386-1.535,2.012-3.6,1.731-5.643
		L289.14,180.852z"/>
	<path fill="#A6BBC8" d="M226.305,164.823l0.784,3.247h62.363l0.783-3.247l2.646-10.873c1.05-4.351,0.047-8.945-2.716-12.461
		c-2.765-3.522-6.999-5.572-11.475-5.572h-40.839c-4.479,0-8.714,2.05-11.476,5.572c-2.763,3.516-3.766,8.11-2.717,12.461
		L226.305,164.823z"/>
</g>
</svg>
