<?xml version="1.0" encoding="utf-8"?>
<!-- Generator: Adobe Illustrator 15.0.0, SVG Export Plug-In . SVG Version: 6.00 Build 0)  -->
<!DOCTYPE svg PUBLIC "-//W3C//DTD SVG 1.1//EN" "http://www.w3.org/Graphics/SVG/1.1/DTD/svg11.dtd">
<svg version="1.1" id="Capa_1" xmlns="http://www.w3.org/2000/svg" xmlns:xlink="http://www.w3.org/1999/xlink" x="0px" y="0px"
	 width="720px" height="720px" viewBox="-242.856 -242.856 720 720" enable-background="new -242.856 -242.856 720 720"
	 xml:space="preserve">
<g>
	<g>
		<g id="_x31_38_59_">
			<g>
				<path fill="#C6DAE7" d="M-26.529,104.425c97.679,0,195.342,0,293.024,0c24.556,0,24.556-38.047,0-38.047
					c-97.682,0-195.345,0-293.024,0C-51.086,66.377-51.086,104.425-26.529,104.425z"/>
				<path fill="#C6DAE7" d="M266.495,149.842c-97.682,0-195.345,0-293.024,0c-24.541,0-24.541,38.048,0,38.048
					c97.679,0,195.342,0,293.024,0C291.051,187.89,291.051,149.842,266.495,149.842z"/>
				<path fill="#C6DAE7" d="M266.495,239.881c-97.682,0-195.345,0-293.024,0c-24.541,0-24.541,38.051,0,38.051
					c97.679,0,195.342,0,293.024,0C291.051,277.932,291.051,239.881,266.495,239.881z"/>
				<path fill="#C6DAE7" d="M266.495,324.872c-97.682,0-195.361,0-293.042,0c-24.522,0-24.522,38.045,0,38.045
					c97.682,0,195.361,0,293.042,0C291.02,362.917,291.02,324.872,266.495,324.872z"/>
				<path fill="#A6BBC8" d="M283.082-225.733h-429.987v685.754h528.098v-590.616L283.082-225.733z M335.55,414.344h-436.799
					v-594.416h360.805v72.442h75.977v521.974H335.55z"/>
			</g>
		</g>
	</g>
	<g>
		<path fill="#EB3300" d="M-57.926-53.626l22.775,12.622c1.143,0.641,1.904,1.212,2.281,1.715c0.377,0.503,0.565,1.144,0.565,1.92
			c0,0.984-0.354,1.835-1.063,2.556s-1.532,1.081-2.47,1.081c-0.617,0-1.543-0.343-2.778-1.029l-33.923-18.865l33.923-18.865
			c1.235-0.664,2.15-0.995,2.744-0.995c0.961,0,1.795,0.354,2.504,1.063c0.709,0.709,1.063,1.555,1.063,2.538
			c0,0.778-0.188,1.418-0.565,1.921c-0.377,0.502-1.138,1.075-2.281,1.714L-57.926-53.626z"/>
		<path fill="#EB3300" d="M-0.816-56.508c-1.144-0.708-2.344-1.24-3.602-1.595c-1.257-0.354-2.572-0.531-3.944-0.531
			c-2.722,0-4.883,0.446-6.483,1.337c-0.709,0.389-1.063,0.812-1.063,1.269c0,0.526,0.48,1.041,1.44,1.543
			c0.731,0.366,2.366,0.721,4.905,1.063c4.665,0.641,7.912,1.281,9.742,1.921c2.401,0.846,4.253,2.104,5.557,3.773
			c1.304,1.669,1.955,3.43,1.955,5.282c0,2.515-1.109,4.619-3.327,6.311c-3.178,2.447-7.307,3.67-12.383,3.67
			c-2.035,0-3.916-0.176-5.642-0.531c-1.727-0.355-3.311-0.875-4.751-1.562c-0.343,0.297-0.708,0.526-1.098,0.687
			c-0.388,0.16-0.789,0.24-1.2,0.24c-1.098,0-1.972-0.36-2.624-1.081c-0.652-0.721-0.978-1.926-0.978-3.619v-2.367
			c0-1.692,0.326-2.898,0.978-3.619c0.651-0.721,1.503-1.081,2.555-1.081c0.847,0,1.556,0.234,2.127,0.704
			c0.572,0.469,1.017,1.274,1.337,2.417c1.075,0.915,2.367,1.607,3.876,2.076c1.51,0.468,3.248,0.703,5.213,0.703
			c3.225,0,5.729-0.502,7.513-1.509c0.846-0.503,1.269-1.029,1.269-1.578c0-0.915-0.606-1.669-1.818-2.264
			c-1.211-0.594-3.716-1.098-7.512-1.509c-5.648-0.595-9.421-1.738-11.319-3.431c-1.898-1.668-2.847-3.727-2.847-6.173
			c0-2.515,1.063-4.607,3.189-6.277c2.881-2.286,6.654-3.429,11.319-3.429c1.624,0,3.184,0.154,4.682,0.462s2.933,0.783,4.305,1.423
			C0.99-64.1,1.396-64.34,1.773-64.5C2.151-64.66,2.5-64.74,2.82-64.74c0.96,0,1.761,0.359,2.401,1.08s0.96,1.927,0.96,3.619v1.715
			c0,1.533-0.183,2.573-0.549,3.121c-0.731,1.052-1.727,1.579-2.984,1.579c-0.846,0-1.59-0.263-2.23-0.79
			C-0.222-54.942-0.633-55.639-0.816-56.508z"/>
		<path fill="#EB3300" d="M32.009-57.708v14.097c0,1.51,0.309,2.504,0.926,2.984c0.96,0.754,2.676,1.132,5.146,1.132
			c3.59,0,6.906-0.766,9.947-2.298c1.167-0.594,2.081-0.891,2.744-0.891c0.915,0,1.709,0.343,2.383,1.028
			c0.675,0.687,1.012,1.521,1.012,2.504c0,0.914-0.366,1.703-1.097,2.367c-1.121,1.075-3.333,2.064-6.638,2.967
			c-3.304,0.903-6.088,1.354-8.352,1.354c-4.368,0-7.644-0.943-9.827-2.829c-2.184-1.887-3.275-4.202-3.275-6.946v-15.47h-2.539
			c-1.692,0-2.899-0.326-3.619-0.978c-0.721-0.651-1.08-1.503-1.08-2.555c0-1.029,0.359-1.87,1.08-2.521
			c0.72-0.652,1.926-0.977,3.619-0.977h2.539v-6.346c0-1.692,0.326-2.898,0.977-3.619c0.652-0.72,1.503-1.08,2.556-1.08
			c1.029,0,1.869,0.36,2.521,1.08c0.652,0.721,0.978,1.927,0.978,3.619v6.346h13c1.692,0,2.898,0.325,3.619,0.977
			c0.72,0.652,1.081,1.503,1.081,2.556c0,1.029-0.36,1.87-1.081,2.521c-0.721,0.652-1.927,0.978-3.619,0.978H32.009z"/>
		<path fill="#EB3300" d="M92.035-78.083v37.456h1.201c1.669,0,2.87,0.326,3.602,0.978c0.732,0.652,1.098,1.504,1.098,2.556
			c0,1.029-0.36,1.869-1.081,2.521c-0.72,0.651-1.927,0.978-3.619,0.978h-8.232v-1.715c-1.601,0.938-3.276,1.646-5.025,2.127
			c-1.749,0.48-3.562,0.72-5.437,0.72c-5.282,0-9.536-1.526-12.76-4.579c-3.224-3.053-4.836-6.854-4.836-11.405
			c0-4.757,1.692-8.816,5.076-12.177s7.512-5.041,12.382-5.041c1.83,0,3.625,0.28,5.386,0.84c1.761,0.561,3.499,1.4,5.213,2.521
			v-8.747h-1.201c-1.692,0-2.898-0.326-3.619-0.978c-0.721-0.652-1.081-1.492-1.081-2.521c0-1.052,0.36-1.904,1.081-2.556
			c0.72-0.651,1.926-0.977,3.619-0.977H92.035z M85.003-48.242c0-2.904-1.018-5.362-3.053-7.375
			c-2.035-2.012-4.528-3.018-7.478-3.018c-2.927,0-5.408,1.006-7.443,3.018c-2.035,2.013-3.053,4.436-3.053,7.272
			c0,2.584,0.915,4.705,2.744,6.363c1.83,1.658,4.414,2.486,7.752,2.486c3.316,0,5.9-0.829,7.752-2.486
			C84.077-43.639,85.003-45.726,85.003-48.242z"/>
		<path fill="#EB3300" d="M121.533-64.74v24.113h8.438c1.692,0,2.899,0.326,3.619,0.978c0.721,0.652,1.08,1.504,1.08,2.556
			c0,1.029-0.359,1.869-1.08,2.521c-0.72,0.651-1.927,0.978-3.619,0.978h-23.907c-1.692,0-2.898-0.326-3.619-0.978
			c-0.721-0.652-1.08-1.504-1.08-2.556c0-1.029,0.359-1.869,1.08-2.521c0.721-0.651,1.927-0.978,3.619-0.978h8.438v-17.082h-5.659
			c-1.669,0-2.869-0.326-3.601-0.978c-0.732-0.651-1.098-1.503-1.098-2.555c0-1.029,0.36-1.87,1.081-2.521
			c0.72-0.652,1.926-0.977,3.618-0.977H121.533z M120.572-78.083v7.443h-8.369v-7.443H120.572z"/>
		<path fill="#EB3300" d="M178.472-48.584c0,2.698-0.749,5.311-2.247,7.838c-1.497,2.527-3.727,4.539-6.688,6.037
			c-2.961,1.498-6.054,2.246-9.278,2.246c-3.201,0-6.266-0.737-9.192-2.212c-2.927-1.475-5.156-3.481-6.688-6.019
			c-1.533-2.539-2.299-5.191-2.299-7.958c0-2.812,0.777-5.574,2.332-8.284c1.555-2.709,3.79-4.842,6.706-6.396
			c2.915-1.555,5.962-2.332,9.141-2.332c3.202,0,6.283,0.794,9.244,2.383s5.196,3.727,6.706,6.415
			C177.718-54.181,178.472-51.42,178.472-48.584z M171.44-48.55c0-2.264-0.812-4.345-2.436-6.242
			c-2.219-2.562-5.134-3.842-8.747-3.842c-3.179,0-5.831,1.017-7.957,3.053c-2.127,2.035-3.19,4.391-3.19,7.065
			c0,2.195,1.075,4.248,3.225,6.157s4.791,2.864,7.923,2.864c3.156,0,5.809-0.955,7.958-2.864S171.44-46.332,171.44-48.55z"/>
		<path fill="#EB3300" d="M207.729-37.128c0,1.326-0.468,2.436-1.406,3.327c-0.938,0.892-2.229,1.337-3.876,1.337
			s-2.938-0.445-3.876-1.337c-0.938-0.892-1.406-2.001-1.406-3.327c0-1.326,0.469-2.435,1.406-3.327
			c0.938-0.892,2.229-1.338,3.876-1.338s2.938,0.446,3.876,1.338C207.262-39.563,207.729-38.454,207.729-37.128z"/>
		<path fill="#EB3300" d="M237.262-78.083v14.989c1.464-0.869,2.945-1.515,4.442-1.938c1.498-0.423,3.014-0.634,4.545-0.634
			c2.425,0,4.585,0.411,6.482,1.234c1.898,0.823,3.47,2.121,4.717,3.893c1.246,1.772,1.87,4.008,1.87,6.706v13.206
			c1.782,0,2.949,0.172,3.498,0.514c1.097,0.71,1.646,1.715,1.646,3.019c0,1.029-0.354,1.869-1.063,2.521
			c-0.708,0.651-1.908,0.978-3.602,0.978h-8.026c-1.668,0-2.863-0.326-3.583-0.978c-0.721-0.652-1.081-1.504-1.081-2.556
			c0-1.28,0.549-2.274,1.647-2.984c0.57-0.365,1.737-0.537,3.497-0.514v-12.725c0-1.807-0.41-3.076-1.234-3.807
			c-1.074-0.984-2.663-1.475-4.768-1.475c-1.555,0-2.933,0.303-4.133,0.909s-2.818,1.915-4.854,3.928v13.171
			c1.808,0,2.974,0.172,3.5,0.514c1.12,0.71,1.68,1.715,1.68,3.019c0,1.029-0.359,1.869-1.08,2.521
			c-0.72,0.651-1.927,0.978-3.619,0.978h-7.991c-1.692,0-2.898-0.326-3.619-0.978c-0.72-0.652-1.08-1.504-1.08-2.556
			c0-1.28,0.561-2.274,1.681-2.984c0.549-0.365,1.715-0.537,3.498-0.514v-30.424h-1.2c-1.692,0-2.898-0.326-3.618-0.978
			c-0.721-0.652-1.081-1.504-1.081-2.556c0-1.029,0.36-1.869,1.081-2.521c0.72-0.651,1.926-0.977,3.618-0.977H237.262z"/>
		<path fill="#EB3300" d="M294.098-53.626L271.322-66.25c-1.143-0.64-1.903-1.212-2.28-1.714c-0.378-0.503-0.566-1.144-0.566-1.921
			c0-0.983,0.354-1.829,1.063-2.538c0.709-0.709,1.543-1.063,2.504-1.063c0.595,0,1.51,0.332,2.743,0.995l33.925,18.865
			l-33.925,18.865c-1.233,0.686-2.148,1.029-2.743,1.029c-0.961,0-1.795-0.355-2.504-1.064c-0.709-0.708-1.063-1.565-1.063-2.572
			c0-0.777,0.188-1.417,0.566-1.92c0.377-0.503,1.138-1.075,2.28-1.715L294.098-53.626z"/>
	</g>
</g>
</svg>
