<?xml version="1.0" encoding="utf-8"?>
<!-- Generator: Adobe Illustrator 15.0.0, SVG Export Plug-In . SVG Version: 6.00 Build 0)  -->
<!DOCTYPE svg PUBLIC "-//W3C//DTD SVG 1.1//EN" "http://www.w3.org/Graphics/SVG/1.1/DTD/svg11.dtd">
<svg version="1.1" id="Capa_1" xmlns="http://www.w3.org/2000/svg" xmlns:xlink="http://www.w3.org/1999/xlink" x="0px" y="0px"
	 width="720px" height="720px" viewBox="0 0 720 720" enable-background="new 0 0 720 720" xml:space="preserve">
<g>
	<path fill="#A6BBC8" d="M671.75,145c-17.783,0-32.25,14.468-32.25,32.25c0,1.348,0.092,2.674,0.254,3.979L520.513,240.85
		c-9.849-12.529-25.126-20.6-42.263-20.6c-29.639,0-53.75,24.112-53.75,53.75c0,11.774,3.815,22.667,10.261,31.533l-61.185,66.748
		c-0.317,0.347-0.6,0.713-0.861,1.086c-3.903-1.682-8.201-2.616-12.715-2.616c-6.117,0-11.841,1.712-16.719,4.682l-71.191-58.249
		c1.235-3.416,1.911-7.097,1.911-10.933c0-17.782-14.467-32.25-32.25-32.25s-32.25,14.468-32.25,32.25
		c0,8.993,3.704,17.133,9.659,22.988l-49.544,106.166c-1.025-0.099-2.064-0.153-3.115-0.153c-17.783,0-32.25,14.469-32.25,32.25
		c0,1.743,0.144,3.451,0.411,5.122l-64.883,35.391c-5.714-5.133-13.262-8.263-21.528-8.263C30.467,499.75,16,514.219,16,532
		c0,17.782,14.467,32.25,32.25,32.25S80.5,549.782,80.5,532c0-1.743-0.144-3.451-0.411-5.122l64.883-35.391
		c5.714,5.133,13.26,8.262,21.528,8.262c17.783,0,32.25-14.469,32.25-32.25c0-8.992-3.704-17.133-9.659-22.987l49.544-106.167
		c1.025,0.099,2.064,0.154,3.116,0.154c6.117,0,11.841-1.712,16.719-4.682l71.192,58.249c-1.236,3.418-1.912,7.098-1.912,10.935
		c0,17.781,14.467,32.25,32.25,32.25s32.25-14.469,32.25-32.25c0-5.507-1.391-10.694-3.834-15.234
		c0.351-0.296,0.69-0.605,1.009-0.954l61.176-66.736c8.083,4.868,17.546,7.675,27.649,7.675c29.638,0,53.75-24.112,53.75-53.75
		c0-4.818-0.646-9.488-1.843-13.935l119.228-59.614c5.803,5.597,13.688,9.049,22.365,9.049c17.783,0,32.25-14.468,32.25-32.25
		S689.533,145,671.75,145z M48.25,542.75c-5.927,0-10.75-4.823-10.75-10.75s4.823-10.75,10.75-10.75S59,526.073,59,532
		S54.177,542.75,48.25,542.75z M166.5,478.25c-5.927,0-10.75-4.823-10.75-10.75s4.823-10.75,10.75-10.75s10.75,4.823,10.75,10.75
		S172.427,478.25,166.5,478.25z M241.75,317c-5.927,0-10.75-4.823-10.75-10.75s4.823-10.75,10.75-10.75s10.75,4.823,10.75,10.75
		S247.677,317,241.75,317z M360,413.75c-5.927,0-10.75-4.823-10.75-10.75s4.823-10.75,10.75-10.75c5.928,0,10.75,4.823,10.75,10.75
		S365.928,413.75,360,413.75z M478.25,306.25c-17.781,0-32.25-14.468-32.25-32.25s14.469-32.25,32.25-32.25S510.5,256.218,510.5,274
		S496.031,306.25,478.25,306.25z M671.75,188c-5.927,0-10.75-4.823-10.75-10.75s4.823-10.75,10.75-10.75s10.75,4.823,10.75,10.75
		S677.677,188,671.75,188z"/>
	<path fill="#EB3300" d="M478.077,255.149c-5.016,0-9.909,2.022-13.451,5.562c-3.542,3.541-5.561,8.438-5.561,13.45
		s2.019,9.912,5.561,13.45c3.543,3.539,8.438,5.562,13.451,5.562c5.015,0,9.91-2.023,13.45-5.562
		c3.542-3.54,5.562-8.438,5.562-13.45c0-5.013-2.021-9.911-5.562-13.45C487.987,257.171,483.093,255.149,478.077,255.149z"/>
	<path fill="#C6DAE7" d="M478.25,198.75c2.821,0,5.604-1.144,7.605-3.159c1.987-1.987,3.145-4.757,3.145-7.591
		c0-2.835-1.156-5.604-3.145-7.605c-2.003-2.002-4.784-3.145-7.605-3.145c-2.836,0-5.604,1.143-7.605,3.145
		c-2.003,2.002-3.145,4.771-3.145,7.605c0,2.822,1.142,5.604,3.145,7.591C472.646,197.606,475.414,198.75,478.25,198.75z"/>
	<path fill="#C6DAE7" d="M478.25,155.75c2.836,0,5.604-1.144,7.605-3.145c2.003-2.001,3.145-4.783,3.145-7.605
		c0-2.823-1.142-5.604-3.145-7.605c-2.003-2.002-4.771-3.145-7.605-3.145s-5.604,1.143-7.605,3.145
		c-2.003,2.002-3.145,4.771-3.145,7.605s1.142,5.604,3.145,7.605C472.646,154.606,475.414,155.75,478.25,155.75z"/>
	<path fill="#C6DAE7" d="M478.25,112.75c2.821,0,5.59-1.144,7.605-3.145C487.858,107.59,489,104.822,489,102
		c0-2.823-1.142-5.604-3.145-7.605c-2.003-2.002-4.784-3.145-7.605-3.145s-5.604,1.143-7.605,3.145
		c-2.003,2.002-3.145,4.783-3.145,7.605s1.142,5.604,3.145,7.605C472.646,111.606,475.429,112.75,478.25,112.75z"/>
	<path fill="#C6DAE7" d="M478.25,69.75c2.821,0,5.604-1.144,7.605-3.145C487.858,64.604,489,61.834,489,59
		c0-2.823-1.142-5.604-3.145-7.605c-2.003-2.002-4.771-3.145-7.605-3.145s-5.604,1.143-7.605,3.145
		c-2.003,2.001-3.145,4.783-3.145,7.605c0,2.834,1.142,5.604,3.145,7.605C472.646,68.606,475.429,69.75,478.25,69.75z"/>
	<path fill="#C6DAE7" d="M478.25,478.25c-2.836,0-5.604,1.142-7.605,3.145c-2.003,2.003-3.145,4.771-3.145,7.605
		c0,2.834,1.142,5.604,3.145,7.605c2.003,2.001,4.771,3.145,7.605,3.145c2.821,0,5.604-1.144,7.605-3.145
		c2.003-2.003,3.145-4.771,3.145-7.605c0-2.836-1.142-5.604-3.145-7.605C483.854,479.392,481.086,478.25,478.25,478.25z"/>
	<path fill="#C6DAE7" d="M478.25,435.25c-2.836,0-5.604,1.142-7.605,3.145c-2.003,2.003-3.145,4.784-3.145,7.605
		s1.142,5.604,3.145,7.605c2.003,2.001,4.784,3.145,7.605,3.145s5.604-1.144,7.605-3.145C487.858,451.604,489,448.82,489,446
		c0-2.823-1.142-5.604-3.145-7.605C483.854,436.392,481.086,435.25,478.25,435.25z"/>
	<path fill="#C6DAE7" d="M478.25,392.25c-2.836,0-5.604,1.142-7.605,3.145c-2.003,2.003-3.145,4.771-3.145,7.605
		c0,2.834,1.142,5.604,3.145,7.591c2.003,2.017,4.771,3.159,7.605,3.159s5.604-1.144,7.605-3.159
		c2.003-1.987,3.145-4.757,3.145-7.591c0-2.836-1.142-5.604-3.145-7.605C483.854,393.392,481.086,392.25,478.25,392.25z"/>
	<path fill="#C6DAE7" d="M478.25,349.25c-2.836,0-5.604,1.143-7.605,3.145c-2.003,2.002-3.145,4.771-3.145,7.605
		s1.142,5.604,3.145,7.591c2.003,2.017,4.771,3.159,7.605,3.159c2.821,0,5.604-1.144,7.605-3.159
		c2.003-1.987,3.145-4.757,3.145-7.591c0-2.835-1.142-5.604-3.145-7.605C483.854,350.393,481.071,349.25,478.25,349.25z"/>
	<path fill="#C6DAE7" d="M478.25,650.25c-2.836,0-5.604,1.142-7.605,3.145c-2.003,2.003-3.145,4.771-3.145,7.605
		c0,2.834,1.142,5.604,3.145,7.605c2.003,2,4.771,3.145,7.605,3.145s5.604-1.144,7.605-3.145c2.003-2.003,3.145-4.771,3.145-7.605
		c0-2.836-1.142-5.604-3.145-7.605C483.854,651.392,481.086,650.25,478.25,650.25z"/>
	<path fill="#C6DAE7" d="M478.25,607.25c-2.836,0-5.604,1.142-7.605,3.145c-2.003,2.003-3.145,4.771-3.145,7.605
		c0,2.834,1.142,5.604,3.145,7.605c2.003,2,4.771,3.145,7.605,3.145s5.604-1.144,7.605-3.145c2.003-2.003,3.145-4.771,3.145-7.605
		c0-2.823-1.142-5.604-3.145-7.605C483.854,608.392,481.086,607.25,478.25,607.25z"/>
	<path fill="#C6DAE7" d="M478.25,564.25c-2.836,0-5.604,1.154-7.605,3.145c-2.003,2.003-3.145,4.771-3.145,7.605
		c0,2.821,1.142,5.604,3.145,7.605c2.003,2,4.771,3.145,7.605,3.145s5.604-1.144,7.605-3.145C487.858,580.604,489,577.82,489,575
		c0-2.836-1.142-5.604-3.145-7.605C483.854,565.404,481.086,564.25,478.25,564.25z"/>
	<path fill="#C6DAE7" d="M478.25,521.25c-2.836,0-5.604,1.142-7.605,3.145c-1.987,2.003-3.145,4.771-3.145,7.605
		c0,2.834,1.156,5.604,3.145,7.591c2.003,2.017,4.784,3.159,7.605,3.159s5.604-1.144,7.605-3.159
		c1.987-1.987,3.145-4.757,3.145-7.591c0-2.836-1.156-5.604-3.145-7.605C483.854,522.392,481.086,521.25,478.25,521.25z"/>
</g>
</svg>
