<?xml version="1.0" encoding="utf-8"?>
<!-- Generator: Adobe Illustrator 15.0.0, SVG Export Plug-In . SVG Version: 6.00 Build 0)  -->
<!DOCTYPE svg PUBLIC "-//W3C//DTD SVG 1.1//EN" "http://www.w3.org/Graphics/SVG/1.1/DTD/svg11.dtd">
<svg version="1.1" id="Layer_1" xmlns="http://www.w3.org/2000/svg" xmlns:xlink="http://www.w3.org/1999/xlink" x="0px" y="0px"
	 width="720px" height="720px" viewBox="0 0 720 720" enable-background="new 0 0 720 720" xml:space="preserve">
<g>
	<path fill="#C6DAE7" d="M260.367,363.84l-4.75,26.519c-0.258,1.461,0.211,2.957,1.276,4c1.063,1.041,2.567,1.483,4.03,1.197
		l26.417-5.302c0.892-0.178,1.696-0.616,2.332-1.26l10.691-10.91l9.016-65.384l-47.789,48.792
		C260.946,362.133,260.523,362.955,260.367,363.84z"/>
	<path fill="#A6BBC8" d="M391.14,284.853h-61.74l-19.206,139.286c-0.282,2.043,0.351,4.107,1.737,5.645l43.126,47.982
		c1.332,1.473,3.225,2.316,5.214,2.316c1.985,0,3.881-0.846,5.213-2.316l43.132-47.982c1.386-1.535,2.012-3.602,1.731-5.645
		L391.14,284.853z"/>
	<path fill="#A6BBC8" d="M328.305,268.824l0.784,3.247h62.363l0.783-3.247l2.646-10.873c1.051-4.351,0.047-8.945-2.716-12.461
		c-2.765-3.522-6.999-5.572-11.475-5.572h-40.839c-4.479,0-8.714,2.05-11.476,5.572c-2.763,3.516-3.766,8.11-2.717,12.461
		L328.305,268.824z"/>
</g>
</svg>
