<?xml version="1.0" encoding="utf-8"?>
<!-- Generator: Adobe Illustrator 15.0.0, SVG Export Plug-In . SVG Version: 6.00 Build 0)  -->
<!DOCTYPE svg PUBLIC "-//W3C//DTD SVG 1.1//EN" "http://www.w3.org/Graphics/SVG/1.1/DTD/svg11.dtd">
<svg version="1.1" id="Layer_1" xmlns="http://www.w3.org/2000/svg" xmlns:xlink="http://www.w3.org/1999/xlink" x="0px" y="0px"
	 width="720px" height="720px" viewBox="12.817 -85.97 720 720" enable-background="new 12.817 -85.97 720 720"
	 xml:space="preserve">
<g>
	<g>
		<path fill="#A6BBC8" d="M61.339,262.05c-6.616,0-11.98-5.358-11.98-11.98v-23.958c0-6.622,5.365-11.981,11.98-11.981
			s11.981,5.358,11.981,11.981v23.959C73.318,256.691,67.955,262.05,61.339,262.05z"/>
		<path fill="#A6BBC8" d="M61.339,190.171c-6.616,0-11.98-5.358-11.98-11.98v-23.96c0-6.621,5.365-11.98,11.98-11.98
			s11.981,5.358,11.981,11.98v23.96C73.318,184.813,67.955,190.171,61.339,190.171z"/>
		<path fill="#A6BBC8" d="M61.339,333.931c-6.616,0-11.98-5.358-11.98-11.981v-23.958c0-6.622,5.365-11.981,11.98-11.981
			s11.981,5.358,11.981,11.981v23.958C73.318,328.572,67.955,333.931,61.339,333.931z"/>
		<path fill="#A6BBC8" d="M61.339,118.291c-6.616,0-11.98-5.358-11.98-11.981V82.351c0-6.621,5.365-11.98,11.98-11.98
			s11.981,5.358,11.981,11.98v23.959C73.318,112.933,67.955,118.291,61.339,118.291z"/>
		<path fill="#A6BBC8" d="M61.339,46.412c-6.616,0-11.98-5.358-11.98-11.98v-47.92c0-6.621,5.365-11.98,11.98-11.98
			S73.32-20.11,73.32-13.488v47.92C73.318,41.054,67.955,46.412,61.339,46.412z"/>
		<path fill="#A6BBC8" d="M61.339,573.529c-6.616,0-11.98-5.358-11.98-11.98V513.63c0-6.621,5.365-11.981,11.98-11.981
			s11.981,5.358,11.981,11.981v47.919C73.318,568.171,67.955,573.529,61.339,573.529z"/>
		<path fill="#A6BBC8" d="M61.339,405.809c-6.616,0-11.98-5.357-11.98-11.979v-23.96c0-6.622,5.365-11.981,11.98-11.981
			s11.981,5.358,11.981,11.981v23.96C73.318,400.451,67.955,405.809,61.339,405.809z"/>
		<path fill="#A6BBC8" d="M61.339,477.688c-6.616,0-11.98-5.357-11.98-11.98v-23.96c0-6.621,5.365-11.979,11.98-11.979
			s11.981,5.357,11.981,11.979v23.96C73.318,472.331,67.955,477.688,61.339,477.688z"/>
		<path fill="#A6BBC8" d="M684.296,262.05c-6.617,0-11.981-5.358-11.981-11.98v-23.958c0-6.622,5.364-11.981,11.981-11.981
			c6.615,0,11.979,5.358,11.979,11.981v23.959C696.275,256.691,690.911,262.05,684.296,262.05z"/>
		<path fill="#A6BBC8" d="M684.296,190.171c-6.617,0-11.981-5.358-11.981-11.98v-23.96c0-6.621,5.364-11.98,11.981-11.98
			c6.615,0,11.979,5.358,11.979,11.98v23.96C696.275,184.813,690.911,190.171,684.296,190.171z"/>
		<path fill="#A6BBC8" d="M684.296,333.931c-6.617,0-11.981-5.358-11.981-11.981v-23.958c0-6.622,5.364-11.981,11.981-11.981
			c6.615,0,11.979,5.358,11.979,11.981v23.958C696.275,328.572,690.911,333.931,684.296,333.931z"/>
		<path fill="#A6BBC8" d="M684.296,118.291c-6.617,0-11.981-5.358-11.981-11.981V82.351c0-6.621,5.364-11.98,11.981-11.98
			c6.615,0,11.979,5.358,11.979,11.98v23.959C696.275,112.933,690.911,118.291,684.296,118.291z"/>
		<path fill="#A6BBC8" d="M684.296,46.412c-6.617,0-11.981-5.358-11.981-11.98v-47.92c0-6.621,5.364-11.98,11.981-11.98
			c6.615,0,11.979,5.358,11.979,11.98v47.92C696.275,41.054,690.911,46.412,684.296,46.412z"/>
		<path fill="#A6BBC8" d="M684.296,573.529c-6.617,0-11.981-5.358-11.981-11.98V513.63c0-6.621,5.364-11.981,11.981-11.981
			c6.615,0,11.979,5.358,11.979,11.981v47.919C696.275,568.171,690.911,573.529,684.296,573.529z"/>
		<path fill="#A6BBC8" d="M684.296,405.809c-6.617,0-11.981-5.357-11.981-11.979v-23.96c0-6.622,5.364-11.981,11.981-11.981
			c6.615,0,11.979,5.358,11.979,11.981v23.96C696.275,400.451,690.911,405.809,684.296,405.809z"/>
		<path fill="#A6BBC8" d="M684.296,477.688c-6.617,0-11.981-5.357-11.981-11.98v-23.96c0-6.621,5.364-11.979,11.981-11.979
			c6.615,0,11.979,5.357,11.979,11.979v23.96C696.275,472.331,690.911,477.688,684.296,477.688z"/>
		<path fill="#A6BBC8" d="M348.858,597.488h-23.959c-6.616,0-11.981-5.357-11.981-11.979c0-6.623,5.365-11.981,11.981-11.981h23.959
			c6.616,0,11.98,5.358,11.98,11.981C360.838,592.131,355.474,597.488,348.858,597.488z"/>
		<path fill="#A6BBC8" d="M276.978,597.488h-23.96c-6.616,0-11.98-5.357-11.98-11.979c0-6.623,5.365-11.981,11.98-11.981h23.96
			c6.616,0,11.98,5.358,11.98,11.981C288.958,592.131,283.594,597.488,276.978,597.488z"/>
		<path fill="#A6BBC8" d="M420.736,597.488h-23.959c-6.616,0-11.981-5.357-11.981-11.979c0-6.623,5.365-11.981,11.981-11.981h23.959
			c6.615,0,11.981,5.358,11.981,11.981C432.718,592.131,427.352,597.488,420.736,597.488z"/>
		<path fill="#A6BBC8" d="M205.099,597.488h-23.96c-6.615,0-11.98-5.357-11.98-11.979c0-6.623,5.365-11.981,11.98-11.981h23.96
			c6.615,0,11.98,5.358,11.98,11.981C217.079,592.131,211.714,597.488,205.099,597.488z"/>
		<path fill="#A6BBC8" d="M133.219,597.488H85.299c-6.616,0-11.981-5.357-11.981-11.979c0-6.623,5.365-11.981,11.981-11.981h47.919
			c6.616,0,11.98,5.358,11.98,11.981C145.199,592.131,139.834,597.488,133.219,597.488z"/>
		<path fill="#A6BBC8" d="M660.336,597.488h-47.919c-6.616,0-11.981-5.357-11.981-11.979c0-6.623,5.365-11.981,11.981-11.981h47.919
			c6.615,0,11.98,5.358,11.98,11.981C672.316,592.131,666.951,597.488,660.336,597.488z"/>
		<path fill="#A6BBC8" d="M492.617,597.488h-23.96c-6.615,0-11.979-5.357-11.979-11.979c0-6.623,5.364-11.981,11.979-11.981h23.96
			c6.615,0,11.979,5.358,11.979,11.981C504.597,592.131,499.232,597.488,492.617,597.488z"/>
		<path fill="#A6BBC8" d="M564.495,597.488h-23.959c-6.616,0-11.98-5.357-11.98-11.979c0-6.623,5.364-11.981,11.98-11.981h23.959
			c6.617,0,11.98,5.358,11.98,11.981C576.476,592.131,571.112,597.488,564.495,597.488z"/>
		<path fill="#A6BBC8" d="M348.858-25.469h-23.959c-6.616,0-11.981-5.357-11.981-11.98c0-6.622,5.365-11.98,11.981-11.98h23.959
			c6.616,0,11.98,5.358,11.98,11.98C360.838-30.826,355.474-25.469,348.858-25.469z"/>
		<path fill="#A6BBC8" d="M276.978-25.469h-23.96c-6.616,0-11.98-5.357-11.98-11.98c0-6.622,5.365-11.98,11.98-11.98h23.96
			c6.616,0,11.98,5.358,11.98,11.98C288.958-30.826,283.594-25.469,276.978-25.469z"/>
		<path fill="#A6BBC8" d="M420.736-25.469h-23.959c-6.616,0-11.981-5.357-11.981-11.98c0-6.622,5.365-11.98,11.981-11.98h23.959
			c6.615,0,11.981,5.358,11.981,11.98C432.718-30.826,427.352-25.469,420.736-25.469z"/>
		<path fill="#A6BBC8" d="M205.099-25.469h-23.96c-6.615,0-11.98-5.357-11.98-11.98c0-6.622,5.365-11.98,11.98-11.98h23.96
			c6.615,0,11.98,5.358,11.98,11.98C217.079-30.826,211.714-25.469,205.099-25.469z"/>
		<path fill="#A6BBC8" d="M133.219-25.469H85.299c-6.616,0-11.981-5.357-11.981-11.98c0-6.622,5.365-11.98,11.981-11.98h47.919
			c6.616,0,11.98,5.358,11.98,11.98C145.199-30.826,139.834-25.469,133.219-25.469z"/>
		<path fill="#A6BBC8" d="M660.336-25.469h-47.919c-6.616,0-11.981-5.357-11.981-11.98c0-6.622,5.365-11.98,11.981-11.98h47.919
			c6.615,0,11.98,5.358,11.98,11.98C672.316-30.826,666.951-25.469,660.336-25.469z"/>
		<path fill="#A6BBC8" d="M492.617-25.469h-23.96c-6.615,0-11.979-5.357-11.979-11.98c0-6.622,5.364-11.98,11.979-11.98h23.96
			c6.615,0,11.979,5.358,11.979,11.98C504.597-30.826,499.232-25.469,492.617-25.469z"/>
		<path fill="#A6BBC8" d="M564.495-25.469h-23.959c-6.616,0-11.98-5.357-11.98-11.98c0-6.622,5.364-11.98,11.98-11.98h23.959
			c6.617,0,11.98,5.358,11.98,11.98C576.476-30.826,571.112-25.469,564.495-25.469z"/>
	</g>
	<g>
		<path fill="#C6DAE7" d="M25.399-13.488v-47.919c0-6.616,5.364-11.98,11.98-11.98h47.919c6.616,0,11.98,5.364,11.98,11.98v47.919
			c0,6.616-5.365,11.981-11.98,11.981H37.38C30.764-1.507,25.399-6.872,25.399-13.488z"/>
		<path fill="#C6DAE7" d="M648.355-13.488v-47.919c0-6.616,5.364-11.98,11.98-11.98h47.919c6.616,0,11.98,5.364,11.98,11.98v47.919
			c0,6.616-5.364,11.981-11.98,11.981h-47.919C653.72-1.507,648.355-6.872,648.355-13.488z"/>
		<path fill="#C6DAE7" d="M25.399,609.468v-47.919c0-6.616,5.364-11.98,11.98-11.98h47.919c6.616,0,11.98,5.364,11.98,11.98v47.919
			c0,6.616-5.365,11.98-11.98,11.98H37.38C30.764,621.448,25.399,616.084,25.399,609.468z"/>
		<path fill="#C6DAE7" d="M648.355,609.468v-47.919c0-6.616,5.364-11.98,11.98-11.98h47.919c6.616,0,11.98,5.364,11.98,11.98v47.919
			c0,6.616-5.364,11.98-11.98,11.98h-47.919C653.72,621.448,648.355,616.084,648.355,609.468z"/>
	</g>
	<path fill="#C6DAE7" d="M588.456,250.071H157.178c-6.616,0-11.98-5.365-11.98-11.98v-179.7c0-6.616,5.365-11.98,11.98-11.98
		h431.277c6.617,0,11.98,5.365,11.98,11.98v179.7C600.436,244.706,595.073,250.071,588.456,250.071z"/>
	<path fill="#EB3300" d="M588.456,309.971H157.178c-6.616,0-11.98-5.365-11.98-11.98l0,0c0-6.617,5.365-11.981,11.98-11.981h431.277
		c6.617,0,11.98,5.365,11.98,11.981l0,0C600.436,304.606,595.073,309.971,588.456,309.971z"/>
	<g>
		<path fill="#C6DAE7" d="M348.858,357.891h-191.68c-6.616,0-11.98-5.366-11.98-11.981l0,0c0-6.616,5.365-11.979,11.98-11.979
			h191.679c6.616,0,11.98,5.363,11.98,11.979l0,0C360.837,352.525,355.474,357.891,348.858,357.891z"/>
		<path fill="#C6DAE7" d="M588.456,357.891H396.777c-6.616,0-11.981-5.366-11.981-11.981l0,0c0-6.616,5.365-11.979,11.981-11.979
			h191.678c6.617,0,11.98,5.363,11.98,11.979l0,0C600.436,352.525,595.073,357.891,588.456,357.891z"/>
		<path fill="#C6DAE7" d="M348.858,405.809h-191.68c-6.616,0-11.98-5.364-11.98-11.979l0,0c0-6.616,5.365-11.981,11.98-11.981
			h191.679c6.616,0,11.98,5.365,11.98,11.981l0,0C360.837,400.445,355.474,405.809,348.858,405.809z"/>
		<path fill="#C6DAE7" d="M588.456,405.809H396.777c-6.616,0-11.981-5.364-11.981-11.979l0,0c0-6.616,5.365-11.981,11.981-11.981
			h191.678c6.617,0,11.98,5.365,11.98,11.981l0,0C600.436,400.445,595.073,405.809,588.456,405.809z"/>
		<path fill="#C6DAE7" d="M348.858,453.729h-191.68c-6.616,0-11.98-5.364-11.98-11.981l0,0c0-6.615,5.365-11.979,11.98-11.979
			h191.679c6.616,0,11.98,5.364,11.98,11.979l0,0C360.837,448.365,355.474,453.729,348.858,453.729z"/>
		<path fill="#C6DAE7" d="M588.456,453.729H396.777c-6.616,0-11.981-5.364-11.981-11.981l0,0c0-6.615,5.365-11.979,11.981-11.979
			h191.678c6.617,0,11.98,5.364,11.98,11.979l0,0C600.436,448.365,595.073,453.729,588.456,453.729z"/>
		<path fill="#C6DAE7" d="M348.858,501.648h-191.68c-6.616,0-11.98-5.363-11.98-11.98l0,0c0-6.615,5.365-11.98,11.98-11.98h191.679
			c6.616,0,11.98,5.365,11.98,11.98l0,0C360.837,496.286,355.474,501.648,348.858,501.648z"/>
		<path fill="#C6DAE7" d="M588.456,501.648H396.777c-6.616,0-11.981-5.363-11.981-11.98l0,0c0-6.615,5.365-11.98,11.981-11.98
			h191.678c6.617,0,11.98,5.365,11.98,11.98l0,0C600.436,496.286,595.073,501.648,588.456,501.648z"/>
	</g>
	<path fill="#A6BBC8" d="M588.456,46.412H157.178c-6.616,0-11.98,5.365-11.98,11.98v179.699c0,6.616,5.365,11.98,11.98,11.98
		h431.277c6.617,0,11.98-5.364,11.98-11.98V58.391C600.436,51.775,595.073,46.412,588.456,46.412z M169.158,76.36l172.517,71.881
		l-172.517,71.882V76.36z M217.074,70.371h311.487l-155.743,64.893L217.074,70.371z M372.817,161.219l155.743,64.893H217.074
		L372.817,161.219z M403.96,148.241l172.516-71.881v143.763L403.96,148.241z"/>
</g>
</svg>
